<?xml version="1.0" encoding="UTF-8" standalone="no"?>
<!-- Created with Serif DrawPlus 12,0,4,27 (May 24, 08:37:51) (http://www.serif.com) -->
<svg version="1.1" xmlns="http://www.w3.org/2000/svg" xmlns:xlink="http://www.w3.org/1999/xlink" width="924" height="200">
	<g id="Layer_1">
		<path id="dp_path001" fill="#d1e7df" fill-rule="evenodd" stroke="black" stroke-opacity="0" stroke-width="1.33333" d="M -23.9653,-11.2947 L 959.72,-11.2947 L 959.72,221.816 L -23.9653,221.816 Z "/>
		<g id="dp_group002">
			<g id="dp_dp003" transform="matrix(1,0,0,1,218.188,123.797)">
				<path id="dp_path004" fill="#ff0037" d="M 36.9453,-22.4893 L 36.4,-23.336 L 40.1013,-23.0733 L 33.4907,-1.54133 L 32.9107,-2.388 L 39.0667,-22.3773 Z M 2.996,-25.64 L 6.67867,-25.38 L 8.98533,-7.35067 L 8.18133,-7.428 L 5.98267,-24.688 L 3.916,-24.8387 Z M 18.5253,-24.576 L 24.572,-24.1427 L 27.444,-6.092 L 26.7133,-6.13067 L 23.916,-23.4093 L 19.0707,-23.768 Z M 1.02533,-27.3987 L 5.10133,-1.916 L 14.92,-1.24 L 20.836,-20.1027 L 21.644,-20.064 L 24.8733,-0.545333 L 34.6733,0.150667 L 42.2613,-24.54 L 35.18,-25.028 L 29.9053,-5.88667 L 29.0973,-5.96 L 25.944,-25.64 L 17.304,-26.2453 L 11.4853,-7.2 L 10.6773,-7.23867 L 8.104,-26.892 Z M 0.064,-28.232 L 8.83867,-27.62 L 9.136,-25.4147 L 10.1133,-25.3413 L 11.9173,-11.4333 L 16.724,-27.0787 L 26.6747,-26.3933 L 27.0307,-24.1427 L 27.9533,-24.0693 L 30.1867,-9.96667 L 34.5613,-25.8613 L 43.332,-25.2493 L 42.636,-23.0733 L 44.608,-22.9227 L 36.532,3.30133 L 25.4533,2.532 L 25.06,0.262667 L 24.1787,0.224 L 21.756,-14.216 L 16.76,1.91333 L 5.68133,1.144 L 5.30667,-1.07333 L 4.42533,-1.14667 Z "/>
				<path id="dp_path005" fill="#ff0037" d="M 48.856,-22.48 L 47.972,-23.1373 L 61.3093,-25.028 L 61.6653,-22.368 L 60.8187,-23.06 L 60.668,-24.1307 Z M 53.0067,-10.376 L 53.8907,-9.68133 L 54.6213,-4.37067 L 64.0133,-5.724 L 64.3507,-3.15333 L 63.504,-3.772 L 63.3573,-4.84267 L 53.964,-3.528 Z M 51.6533,-20.0227 L 52.5573,-19.3267 L 53.2693,-14.036 L 62.6613,-15.3653 L 63.0173,-12.796 L 62.1707,-13.4173 L 62.004,-14.484 L 52.6307,-13.1707 Z M 46.132,-24.492 L 49.6253,0.336 L 66.2093,-1.952 L 65.44,-7.524 L 56.0507,-6.22933 L 55.4667,-10.3027 L 64.856,-11.652 L 64.0493,-17.1707 L 54.66,-15.8373 L 54.076,-19.9453 L 63.4693,-21.2587 L 62.6973,-26.8547 Z M 45.2027,-25.1787 L 63.392,-27.784 L 63.6933,-25.5373 L 65.12,-25.7267 L 66.004,-19.3267 L 56.6307,-18.032 L 56.7813,-16.9427 L 64.744,-18.0707 L 65.084,-15.876 L 66.472,-16.0613 L 67.356,-9.68133 L 58.0027,-8.37067 L 58.1333,-7.3 L 66.116,-8.42533 L 66.436,-6.22933 L 67.8627,-6.41867 L 68.82,0.696 L 50.6213,3.268 L 50.3213,1.07067 L 48.9293,1.27867 Z "/>
				<path id="dp_path006" fill="#ff0037" d="M 89.224,-10.9307 L 89.4293,-11.696 C 90.4413,-11.4853 91.2267,-11.0173 91.7813,-10.3 C 92.3387,-9.57867 92.6173,-8.668 92.6173,-7.56533 C 92.6173,-6.428 92.2147,-5.47333 91.4067,-4.704 C 90.5987,-3.93467 89.4133,-3.368 87.8493,-3.00533 L 87.644,-3.736 C 89.032,-4.064 90.08,-4.53467 90.788,-5.156 C 91.496,-5.77467 91.8493,-6.528 91.8493,-7.41867 C 91.8493,-8.40533 91.6213,-9.20667 91.1627,-9.812 C 90.708,-10.4213 90.06,-10.7933 89.224,-10.9307 Z M 74.9453,-21.1053 L 75.7933,-20.4093 L 76.7907,-13.3147 L 80.252,-13.764 L 80.3667,-12.9947 L 76.1307,-12.4307 Z M 81.796,-2.89067 L 81.908,-2.12133 L 77.6747,-1.53867 L 76.3933,-10.684 L 77.2613,-9.988 L 78.332,-2.384 Z M 71.8973,-22.8907 L 81.3253,-24.2227 C 82.1907,-24.336 82.9493,-24.4213 83.6067,-24.4867 C 84.264,-24.5467 84.7987,-24.5787 85.212,-24.5787 C 86.8373,-24.5787 88.052,-24.22 88.852,-23.4987 C 89.6533,-22.7813 90.0547,-21.688 90.0547,-20.224 C 90.0547,-19.5227 89.9133,-18.9133 89.6347,-18.3947 C 89.356,-17.872 88.9107,-17.42 88.3013,-17.032 L 87.888,-17.6893 C 88.3787,-17.9867 88.7373,-18.336 88.968,-18.7307 C 89.2013,-19.1253 89.3173,-19.596 89.3173,-20.1467 C 89.3173,-21.4253 88.9907,-22.3547 88.34,-22.9387 C 87.6867,-23.5187 86.648,-23.8093 85.2187,-23.8093 C 84.8173,-23.8093 84.3053,-23.7813 83.6867,-23.7267 C 83.0653,-23.6693 82.3213,-23.5787 81.456,-23.4547 L 72.7813,-22.2333 Z M 78.784,-10.6107 L 81.3827,-11.004 C 81.732,-11.052 82.0653,-11.0907 82.3787,-11.116 C 82.6933,-11.1427 82.976,-11.1547 83.2253,-11.1547 C 84.2533,-11.1547 85.0547,-10.848 85.632,-10.236 C 86.2093,-9.62 86.4973,-8.77467 86.4973,-7.7 C 86.4973,-6.68533 86.1773,-5.91867 85.5387,-5.4 C 84.8987,-4.88 83.8347,-4.512 82.3413,-4.3 L 79.7253,-3.96133 Z M 77.3347,-21.032 L 79.876,-21.4253 C 80.2773,-21.4733 80.6547,-21.512 81.004,-21.5373 C 81.3573,-21.564 81.668,-21.576 81.9467,-21.576 C 82.7987,-21.576 83.4813,-21.2787 83.9947,-20.6827 C 84.5107,-20.0893 84.7667,-19.2973 84.7667,-18.308 C 84.7667,-17.32 84.4853,-16.5867 83.9213,-16.112 C 83.3573,-15.6347 82.3027,-15.292 80.7613,-15.0773 L 78.22,-14.6827 Z M 70.0893,-24.1467 L 73.5533,0.696 L 84.8053,-0.881333 C 88.1733,-1.35867 90.5733,-2.09867 92.0053,-3.108 C 93.4387,-4.11467 94.156,-5.54133 94.156,-7.38 C 94.156,-9.48267 93.5733,-11.024 92.4093,-11.9973 C 91.2467,-12.9747 89.3747,-13.5013 86.7987,-13.5773 L 86.6867,-14.3853 C 88.4453,-15.1227 89.7213,-15.952 90.5093,-16.872 C 91.2947,-17.792 91.688,-18.9107 91.688,-20.224 C 91.688,-22.124 91.156,-23.5827 90.092,-24.5947 C 89.0293,-25.6107 87.5067,-26.1173 85.5293,-26.1173 C 84.9907,-26.1173 84.3533,-26.0813 83.616,-26.0147 C 82.876,-25.944 82.0493,-25.848 81.136,-25.7227 Z M 83.8853,-18.9453 C 83.696,-18.984 83.556,-19.0093 83.4627,-19.0227 C 83.3667,-19.0347 83.2893,-19.0413 83.2253,-19.0413 C 83.1253,-19.0413 82.924,-19.0253 82.6227,-18.9933 C 82.3213,-18.9613 81.992,-18.9227 81.6267,-18.872 L 79.9147,-18.6093 L 80.328,-15.8107 L 80.6493,-15.8467 C 82.004,-16.036 82.8987,-16.3013 83.3373,-16.648 C 83.776,-16.9907 83.9973,-17.532 83.9973,-18.2693 C 83.9973,-18.372 83.988,-18.4747 83.9693,-18.58 C 83.9493,-18.6853 83.9213,-18.808 83.8853,-18.9453 Z M 81.4173,-8.11067 L 81.8347,-5.03067 L 82.2293,-5.108 C 83.5493,-5.30667 84.456,-5.592 84.952,-5.96 C 85.4493,-6.332 85.696,-6.88667 85.696,-7.624 C 85.696,-7.72267 85.6893,-7.84133 85.6773,-7.98 C 85.664,-8.11733 85.6453,-8.27467 85.6187,-8.45067 C 85.456,-8.48933 85.3333,-8.51067 85.2533,-8.524 C 85.1707,-8.53733 85.0973,-8.544 85.036,-8.544 C 84.8213,-8.544 84.5493,-8.52667 84.216,-8.49467 C 83.8827,-8.46667 83.54,-8.42533 83.1907,-8.37333 Z M 74.288,1.388 L 72.856,1.61467 L 69.16,-24.8413 L 81.024,-26.4893 C 82.036,-26.6267 82.9013,-26.732 83.616,-26.8067 C 84.328,-26.88 84.892,-26.9187 85.3053,-26.9187 C 86.9587,-26.9187 88.2947,-26.6587 89.3133,-26.1427 C 90.336,-25.624 91.14,-24.8093 91.7307,-23.6973 C 92.5667,-23.0347 93.192,-22.252 93.6013,-21.3493 C 94.0147,-20.448 94.22,-19.3973 94.22,-18.196 C 94.22,-17.192 94.0213,-16.2827 93.624,-15.4613 C 93.224,-14.6453 92.6467,-13.94 91.8867,-13.3507 C 92.4573,-13.0013 92.9453,-12.6293 93.3427,-12.2347 C 93.7427,-11.8413 94.06,-11.4053 94.2933,-10.9307 C 95.0987,-10.3667 95.7,-9.62267 96.108,-8.69733 C 96.5147,-7.77067 96.72,-6.66933 96.72,-5.39067 C 96.72,-3.31333 95.9373,-1.70133 94.3733,-0.557333 C 92.8133,0.589333 90.2373,1.41333 86.648,1.91333 L 74.5893,3.62133 Z "/>
				<path id="dp_path007" fill="#ff0037" d="M 115.849,-22.2107 L 114.964,-22.8613 L 121.736,-23.7773 C 122.928,-23.9387 123.915,-24.0533 124.697,-24.124 C 125.479,-24.1907 126.177,-24.2267 126.793,-24.2267 C 130,-24.2267 132.525,-23.1467 134.368,-20.9867 C 136.211,-18.8267 137.131,-15.8813 137.131,-12.152 C 137.131,-9.972 136.599,-8.124 135.532,-6.60133 C 134.468,-5.07867 132.913,-3.94533 130.872,-3.192 L 130.52,-3.852 C 132.439,-4.55067 133.897,-5.608 134.897,-7.024 C 135.893,-8.43733 136.393,-10.1493 136.393,-12.152 C 136.393,-15.6707 135.535,-18.432 133.817,-20.4413 C 132.096,-22.4507 129.744,-23.4573 126.76,-23.4573 C 126.12,-23.4573 125.396,-23.4227 124.588,-23.3547 C 123.777,-23.288 122.855,-23.1853 121.813,-23.0467 Z M 118.615,-20.1027 L 119.46,-19.4427 L 121.7,-3.74 L 124.707,-4.192 L 124.821,-3.42267 L 121.04,-2.89333 Z M 121.04,-20.064 L 124.069,-20.496 C 124.22,-20.5213 124.373,-20.5413 124.531,-20.5547 C 124.684,-20.5667 124.928,-20.5733 125.251,-20.5733 C 126.104,-20.5733 126.851,-20.4133 127.488,-20.092 C 128.125,-19.7747 128.689,-19.288 129.18,-18.6347 C 129.805,-17.7693 130.292,-16.744 130.644,-15.5613 C 130.993,-14.376 131.171,-13.1547 131.171,-11.9013 C 131.171,-10.184 130.773,-8.8 129.977,-7.752 C 129.183,-6.704 128.052,-6.08267 126.588,-5.88 L 123.127,-5.39333 Z M 113.16,-24.0027 L 116.66,0.846667 L 122.245,0.0773333 C 125.976,-0.436 128.641,-0.9 130.237,-1.32 C 131.836,-1.74 133.055,-2.25333 133.893,-2.852 C 135.573,-4.04133 136.811,-5.39333 137.605,-6.90933 C 138.4,-8.42533 138.797,-10.184 138.797,-12.1867 C 138.797,-13.9307 138.572,-15.58 138.121,-17.1373 C 137.669,-18.6987 137.031,-20.06 136.204,-21.224 C 135.103,-22.7907 133.804,-23.932 132.315,-24.652 C 130.824,-25.3733 129.007,-25.732 126.867,-25.732 C 126.328,-25.732 125.591,-25.684 124.659,-25.592 C 123.725,-25.4987 122.675,-25.3613 121.512,-25.188 Z M 123.713,-17.4427 L 125.255,-6.50267 L 126.476,-6.652 C 127.741,-6.82933 128.709,-7.364 129.372,-8.26133 C 130.036,-9.156 130.369,-10.3693 130.369,-11.8987 C 130.369,-12.812 130.263,-13.7253 130.048,-14.6413 C 129.837,-15.5547 129.516,-16.452 129.091,-17.3307 C 128.84,-17.4907 128.552,-17.612 128.225,-17.696 C 127.899,-17.776 127.511,-17.8173 127.059,-17.8173 C 126.744,-17.8173 126.504,-17.8107 126.335,-17.7987 C 126.164,-17.7853 126.004,-17.7667 125.853,-17.744 Z M 117.355,1.58 L 115.964,1.76933 L 112.231,-24.6973 L 121.4,-25.9573 C 123.14,-26.1907 124.389,-26.348 125.149,-26.4213 C 125.908,-26.4947 126.495,-26.5333 126.908,-26.5333 C 129.177,-26.5333 131.112,-26.14 132.717,-25.3547 C 134.32,-24.5693 135.717,-23.3293 136.909,-21.6333 C 138.332,-20.3173 139.425,-18.6693 140.188,-16.6893 C 140.947,-14.7093 141.328,-12.5493 141.328,-10.2027 C 141.328,-8.072 140.899,-6.19067 140.044,-4.55733 C 139.185,-2.92 137.868,-1.464 136.089,-0.185333 C 135.211,0.442667 133.945,0.977333 132.285,1.42267 C 130.625,1.868 127.883,2.35867 124.049,2.89733 L 117.656,3.78133 Z "/>
				<path id="dp_path008" fill="#ff0037" d="M 146.276,-22.48 L 145.392,-23.1373 L 158.729,-25.028 L 159.085,-22.368 L 158.239,-23.06 L 158.088,-24.1307 Z M 150.427,-10.376 L 151.311,-9.68133 L 152.041,-4.37067 L 161.433,-5.724 L 161.771,-3.15333 L 160.924,-3.772 L 160.777,-4.84267 L 151.384,-3.528 Z M 149.073,-20.0227 L 149.977,-19.3267 L 150.689,-14.036 L 160.081,-15.3653 L 160.437,-12.796 L 159.591,-13.4173 L 159.424,-14.484 L 150.051,-13.1707 Z M 143.552,-24.492 L 147.045,0.336 L 163.629,-1.952 L 162.86,-7.524 L 153.471,-6.22933 L 152.887,-10.3027 L 162.276,-11.652 L 161.469,-17.1707 L 152.08,-15.8373 L 151.496,-19.9453 L 160.889,-21.2587 L 160.117,-26.8547 Z M 142.623,-25.1787 L 160.812,-27.784 L 161.113,-25.5373 L 162.54,-25.7267 L 163.424,-19.3267 L 154.051,-18.032 L 154.201,-16.9427 L 162.164,-18.0707 L 162.504,-15.876 L 163.892,-16.0613 L 164.776,-9.68133 L 155.423,-8.37067 L 155.553,-7.3 L 163.536,-8.42533 L 163.856,-6.22933 L 165.283,-6.41867 L 166.24,0.696 L 148.041,3.268 L 147.741,1.07067 L 146.349,1.27867 Z "/>
				<path id="dp_path009" fill="#ff0037" d="M 176.329,-2.23067 C 178.517,-2.57067 180.193,-3.24 181.363,-4.24 C 182.533,-5.24267 183.116,-6.50533 183.116,-8.03333 C 183.116,-9.284 182.863,-10.3253 182.356,-11.148 C 181.851,-11.976 181.116,-12.552 180.152,-12.876 C 179.515,-13.104 178.729,-13.324 177.796,-13.5427 C 176.864,-13.764 176.281,-13.9307 176.044,-14.0427 C 175.067,-14.456 174.377,-14.8467 173.971,-15.2147 C 173.563,-15.584 173.252,-16.0387 173.041,-16.5773 L 173.775,-16.952 C 174.185,-15.7987 175.631,-14.9107 178.107,-14.2853 C 179.171,-14.0107 179.995,-13.7733 180.584,-13.5707 C 181.636,-13.196 182.447,-12.524 183.023,-11.552 C 183.597,-10.5813 183.885,-9.396 183.885,-7.992 C 183.885,-6.252 183.244,-4.82 181.963,-3.692 C 180.684,-2.56667 178.853,-1.82 176.48,-1.45867 Z M 178.428,-25.06 L 178.784,-22.6013 L 177.94,-23.1467 L 177.775,-24.2907 C 177.348,-24.2907 176.915,-24.2587 176.48,-24.1973 C 176.04,-24.1333 175.567,-24.04 175.051,-23.916 L 174.825,-24.6107 C 175.364,-24.7587 175.932,-24.8733 176.533,-24.948 C 177.133,-25.0213 177.764,-25.06 178.428,-25.06 Z M 179.889,-26.624 C 179.777,-26.624 179.604,-26.6293 179.373,-26.6427 C 179.143,-26.656 178.969,-26.6613 178.857,-26.6613 C 175.361,-26.6613 172.637,-25.944 170.689,-24.5053 C 168.74,-23.0667 167.767,-21.06 167.767,-18.484 C 167.767,-16.6093 168.189,-15.116 169.039,-14.0013 C 169.884,-12.8893 171.288,-12.0013 173.245,-11.3373 C 173.435,-11.2773 173.724,-11.184 174.111,-11.0587 C 176.889,-10.1453 178.277,-9.01467 178.277,-7.66267 C 178.277,-6.61467 177.855,-5.832 177.008,-5.32 C 176.165,-4.80667 174.884,-4.55067 173.169,-4.55067 C 172.631,-4.55067 172.096,-4.58267 171.564,-4.644 C 171.032,-4.704 170.503,-4.8 169.977,-4.92267 L 170.673,0.233333 C 171.124,0.272 171.573,0.304 172.016,0.324 C 172.461,0.342667 172.909,0.352 173.359,0.352 C 177.129,0.352 180.104,-0.4 182.283,-1.904 C 184.461,-3.40667 185.552,-5.448 185.552,-8.028 C 185.552,-10.02 185.109,-11.6 184.225,-12.7733 C 183.34,-13.9427 181.915,-14.8373 179.947,-15.4493 C 179.547,-15.5747 178.979,-15.7093 178.239,-15.8533 C 177.501,-15.9973 176.989,-16.132 176.7,-16.2573 C 176.152,-16.5067 175.739,-16.808 175.464,-17.1573 C 175.188,-17.5093 175.051,-17.9173 175.051,-18.3787 C 175.051,-19.3427 175.519,-20.0733 176.447,-20.5733 C 177.38,-21.076 178.771,-21.3453 180.623,-21.3813 Z M 180.584,-27.392 L 180.847,-25.4893 L 182.308,-25.412 L 183.267,-18.5293 L 182.741,-18.5293 C 181.228,-18.5293 180.043,-18.3813 179.181,-18.0867 C 178.319,-17.792 177.819,-17.3653 177.681,-16.8013 C 179.709,-16.4653 181.321,-15.9653 182.517,-15.308 C 183.712,-14.6507 184.609,-13.78 185.212,-12.6907 C 186.173,-11.876 186.895,-10.9173 187.368,-9.816 C 187.845,-8.71333 188.083,-7.45333 188.083,-6.04 C 188.083,-3.208 186.913,-0.961333 184.571,0.705333 C 182.228,2.372 179.043,3.204 175.012,3.204 C 174.547,3.204 174.047,3.188 173.509,3.156 C 172.971,3.128 172.359,3.08 171.669,3.016 L 171.388,1.12133 C 171.185,1.10933 170.936,1.08267 170.635,1.048 C 170.333,1.00933 170.128,0.984 170.016,0.970667 L 168.952,-5.916 C 169.781,-5.72667 170.548,-5.58533 171.249,-5.492 C 171.955,-5.4 172.621,-5.352 173.245,-5.352 C 174.615,-5.352 175.659,-5.53733 176.387,-5.90533 C 177.113,-6.27467 177.476,-6.80267 177.476,-7.492 L 177.476,-7.624 C 174.905,-8.43733 173.067,-9.184 171.957,-9.86667 C 170.849,-10.5493 170.067,-11.344 169.615,-12.2573 C 168.753,-12.9213 168.089,-13.7853 167.628,-14.856 C 167.164,-15.9267 166.933,-17.148 166.933,-18.5227 C 166.933,-21.3227 167.984,-23.508 170.087,-25.0787 C 172.192,-26.6453 175.127,-27.4307 178.896,-27.4307 C 179.344,-27.4307 179.691,-27.428 179.928,-27.4213 C 180.164,-27.4147 180.383,-27.4053 180.584,-27.392 Z "/>
				<path id="dp_path010" fill="#ff0037" d="M 192.673,-23.1533 L 191.828,-23.8133 L 195.747,-24.3867 L 198.824,-2.68533 L 197.923,-3.34267 L 195.128,-23.4893 Z M 189.972,-25.1467 L 193.479,-0.301333 L 200.66,-1.31333 L 197.153,-26.1813 Z M 198.167,-24.8867 L 199.573,-25.072 L 203.303,1.34533 L 194.472,2.596 L 194.173,0.374667 L 192.748,0.614667 L 189.043,-25.8293 L 197.845,-27.0787 Z "/>
				<path id="dp_path011" fill="#ff0037" d="M 223.56,-24.932 L 222.601,-24.932 C 222.179,-24.932 221.691,-24.9053 221.147,-24.8573 C 220.605,-24.8067 219.977,-24.7333 219.263,-24.6333 L 219.092,-25.3987 C 219.656,-25.5013 220.229,-25.576 220.82,-25.6267 C 221.405,-25.6747 222.04,-25.7 222.713,-25.7 C 223.127,-25.7 223.437,-25.6973 223.643,-25.6907 C 223.851,-25.684 224.033,-25.6747 224.197,-25.6627 L 224.553,-23.284 L 223.709,-23.7133 Z M 223.56,-11.6293 L 227.18,-12.136 L 228.324,-3.996 L 227.479,-4.50267 L 226.524,-11.2893 L 224.44,-10.988 Z M 214.253,-6.012 C 215.016,-5.29067 215.863,-4.74933 216.795,-4.38667 C 217.727,-4.02533 218.763,-3.84533 219.9,-3.84533 C 220.213,-3.84533 220.573,-3.86533 220.98,-3.90267 C 221.387,-3.93867 221.832,-3.996 222.319,-4.06933 L 223.088,-3.48933 C 222.339,-3.352 221.697,-3.24933 221.165,-3.17867 C 220.633,-3.112 220.176,-3.076 219.788,-3.076 C 218.551,-3.076 217.425,-3.27467 216.42,-3.676 C 215.413,-4.07333 214.529,-4.67867 213.767,-5.48933 Z M 225.661,-27.136 C 225.408,-27.1493 225.136,-27.1587 224.835,-27.1653 C 224.533,-27.172 224.097,-27.1747 223.521,-27.1747 C 217.804,-27.1747 213.321,-26.0213 210.068,-23.7107 C 206.816,-21.4 205.188,-18.2213 205.188,-14.1773 C 205.188,-12.0613 205.524,-10.1453 206.2,-8.43067 C 206.876,-6.71733 207.86,-5.268 209.148,-4.092 C 210.463,-2.90267 211.956,-1.996 213.635,-1.37733 C 215.311,-0.76 217.105,-0.448 219.019,-0.448 C 220.909,-0.448 222.784,-0.666667 224.639,-1.10267 C 226.497,-1.53467 228.315,-2.18267 230.093,-3.03733 L 228.549,-13.94 L 221.72,-12.9813 L 222.752,-5.82533 C 222.127,-5.688 221.576,-5.58533 221.101,-5.51867 C 220.624,-5.45067 220.213,-5.416 219.861,-5.416 C 217.797,-5.416 216.115,-6.22 214.808,-7.82933 C 213.5,-9.43733 212.847,-11.5293 212.847,-14.1093 C 212.847,-16.6347 213.715,-18.6093 215.455,-20.0227 C 217.192,-21.4347 219.637,-22.144 222.791,-22.144 C 223.489,-22.144 224.145,-22.1147 224.761,-22.06 C 225.373,-22.0027 225.933,-21.9253 226.447,-21.8227 Z M 226.412,-27.9347 L 226.675,-25.9667 L 228.136,-25.928 L 229.093,-18.872 C 228.369,-19.0227 227.613,-19.1347 226.825,-19.2107 C 226.036,-19.2853 225.216,-19.324 224.367,-19.324 C 221.515,-19.324 219.304,-18.696 217.733,-17.436 C 216.163,-16.18 215.379,-14.4107 215.379,-12.132 C 215.379,-11.2453 215.477,-10.3827 215.68,-9.54933 C 215.879,-8.716 216.173,-7.95067 216.56,-7.252 C 217.048,-6.9 217.555,-6.64 218.08,-6.46933 C 218.605,-6.3 219.176,-6.21733 219.788,-6.21733 C 220.111,-6.21733 220.444,-6.23867 220.781,-6.284 C 221.121,-6.32533 221.471,-6.4 221.832,-6.49867 L 220.8,-13.6773 L 229.244,-14.8693 L 229.603,-12.6413 L 230.981,-12.8693 L 232.715,-0.525333 C 230.785,0.442667 228.821,1.16267 226.819,1.64667 C 224.816,2.13067 222.8,2.372 220.772,2.372 C 218.169,2.372 215.804,1.84933 213.683,0.808 C 211.561,-0.233333 209.819,-1.73733 208.453,-3.69467 C 207.143,-4.90933 206.136,-6.416 205.437,-8.216 C 204.736,-10.0173 204.387,-12.004 204.387,-14.184 C 204.387,-18.4707 206.104,-21.848 209.536,-24.3133 C 212.968,-26.7773 217.695,-28.008 223.709,-28.008 C 224.271,-28.008 225.136,-27.9827 226.299,-27.9347 Z "/>
				<path id="dp_path012" fill="#ff0037" d="M 237.156,-21.9093 L 236.311,-22.5693 L 241.777,-23.3387 L 253.571,-9.8 L 253.007,-9.23867 L 241.457,-22.4933 Z M 254.153,-25.0667 L 257.928,-25.6013 L 261.008,-3.92533 L 260.127,-4.61733 L 257.272,-24.7267 L 255.035,-24.4093 Z M 241.384,-13.9147 L 243.111,-1.42667 L 242.264,-2.12133 L 240.611,-13.7987 Z M 234.471,-23.9187 L 237.964,0.92 L 244.969,-0.0386667 L 243.037,-13.8373 L 243.768,-14.1933 L 254.849,-1.42667 L 262.848,-2.57333 L 259.355,-27.3987 L 252.315,-26.4053 L 254.265,-12.6547 L 253.532,-12.2987 L 242.435,-25.028 Z M 233.541,-24.6147 L 242.777,-25.8613 L 253.269,-13.8373 L 251.391,-27.0973 L 260.049,-28.328 L 260.351,-26.104 L 261.777,-26.2933 L 265.459,0.112 L 256.765,1.34933 L 255.073,-0.657333 L 254.548,-0.582667 L 245.777,-10.6453 L 247.62,2.644 L 238.961,3.84533 L 238.66,1.65067 L 237.269,1.84 Z "/>
			</g>
			<g id="dp_dp013" transform="matrix(1,0,0,1,509.576,122.882)">
				<path id="dp_path014" fill="#008cff" d="M 15.408,-9.564 L 6.936,-9.564 L 6.25067,-10.4173 L 15.408,-10.4173 Z M 21.616,-5.83067 L 21.616,-2.46667 L 20.7267,-3.15333 L 20.7267,-6.57733 Z M 20.7267,-26.1307 L 16.0347,-26.1307 L 15.6893,-26.984 L 21.616,-26.984 L 21.616,-10.4173 L 26.8067,-10.4173 L 26.8067,-7.69733 L 25.96,-8.07067 L 25.96,-9.564 L 20.7267,-9.564 Z M 15.3227,-22.028 L 15.3227,-11.9093 L 6.25067,-11.9093 Z M 14.8747,-28.7613 L 2.41733,-15.0107 L 2.41733,-6.57733 L 15.3227,-6.57733 L 15.3227,-0.889333 L 23.3933,-0.889333 L 23.3933,-6.57733 L 28.62,-6.57733 L 28.62,-11.9093 L 23.3933,-11.9093 L 23.3933,-28.7613 Z M 14.4347,-15.5613 L 11.956,-12.7987 L 14.4347,-12.7987 Z M 14.4347,-29.6147 L 24.3173,-29.6147 L 24.3173,-27.1973 L 25.9173,-27.1973 L 25.9173,-12.7987 L 29.508,-12.7987 L 29.508,-10.3453 L 31.108,-10.3453 L 31.108,-3.23467 L 25.9173,-3.23467 L 25.9173,2.488 L 16.0347,2.488 L 16.0347,0 L 14.4347,0 L 14.4347,-3.23467 L 3.104,-3.23467 L 3.104,-5.688 L 1.52933,-5.688 L 1.52933,-15.348 Z "/>
				<path id="dp_path015" fill="#008cff" d="M 53.8907,-24.3067 L 52.952,-25.04 L 59.0173,-25.8933 L 72.1,-10.872 L 71.4747,-10.2493 L 58.6613,-24.9547 Z M 72.748,-27.8093 L 76.936,-28.4027 L 80.352,-4.35467 L 79.3747,-5.12267 L 76.2067,-27.432 L 73.7253,-27.08 Z M 58.58,-15.4373 L 60.496,-1.58267 L 59.5573,-2.35333 L 57.7227,-15.3093 Z M 50.912,-26.536 L 54.7867,1.02 L 62.5587,-0.0426667 L 60.4147,-15.352 L 61.2253,-15.7467 L 73.5187,-1.58267 L 82.3933,-2.85467 L 78.5173,-30.3973 L 70.7067,-29.2947 L 72.872,-14.04 L 72.0573,-13.6453 L 59.7467,-27.7667 Z M 49.88,-27.308 L 60.1267,-28.6907 L 71.7667,-15.352 L 69.6827,-30.0627 L 79.2893,-31.428 L 79.624,-28.9613 L 81.2053,-29.1707 L 85.2907,0.124 L 75.6453,1.49733 L 73.768,-0.729333 L 73.1853,-0.646667 L 63.4547,-11.8107 L 65.4987,2.93333 L 55.892,4.26667 L 55.5587,1.83067 L 54.0147,2.04133 Z "/>
				<path id="dp_path016" fill="#008cff" d="M 101.264,-5.51733 L 101.075,-4.704 C 99.3253,-5.09067 97.8613,-5.852 96.684,-6.976 C 95.504,-8.10267 94.6227,-9.58133 94.0387,-11.416 L 94.8493,-11.7107 C 95.3507,-10.0547 96.1373,-8.71067 97.204,-7.676 C 98.2733,-6.64133 99.624,-5.92 101.264,-5.51733 Z M 101.307,-26.6387 L 101.16,-27.492 C 101.605,-27.5493 102.039,-27.588 102.461,-27.6173 C 102.888,-27.6453 103.308,-27.66 103.724,-27.66 C 107.477,-27.66 110.528,-26.4293 112.871,-23.9733 C 115.215,-21.512 116.384,-18.3053 116.384,-14.3453 C 116.384,-10.996 115.367,-8.24133 113.337,-6.072 C 111.307,-3.90667 108.448,-2.524 104.761,-1.92667 L 104.616,-2.784 C 108.083,-3.33867 110.767,-4.62533 112.672,-6.648 C 114.577,-8.668 115.531,-11.2493 115.531,-14.388 C 115.531,-18.0813 114.436,-21.076 112.245,-23.368 C 110.056,-25.6613 107.2,-26.8067 103.684,-26.8067 C 103.321,-26.8067 102.941,-26.792 102.547,-26.764 C 102.149,-26.7387 101.736,-26.696 101.307,-26.6387 Z M 96.2253,-15.1707 C 96.2253,-17.2253 96.852,-18.9213 98.0987,-20.2547 C 99.3467,-21.5867 100.923,-22.256 102.824,-22.256 C 104.851,-22.256 106.508,-21.4947 107.797,-19.9733 C 109.088,-18.452 109.736,-16.4827 109.736,-14.064 C 109.736,-12.052 109.103,-10.396 107.84,-9.09467 C 106.579,-7.796 104.983,-7.14533 103.052,-7.14533 C 101.015,-7.14533 99.3653,-7.87867 98.1093,-9.34267 C 96.8547,-10.812 96.2253,-12.752 96.2253,-15.1707 Z M 103.727,-29.4013 C 101.697,-29.4013 99.7987,-29.1427 98.028,-28.62 C 96.2573,-28.1 94.6933,-27.34 93.332,-26.34 C 91.512,-25.008 90.1253,-23.3787 89.1653,-21.452 C 88.208,-19.5293 87.7293,-17.388 87.7293,-15.028 C 87.7293,-13.0827 88.02,-11.252 88.6027,-9.53867 C 89.1867,-7.82133 90.0467,-6.25067 91.188,-4.81733 C 92.4507,-3.264 94.036,-2.06533 95.9453,-1.22667 C 97.8533,-0.384 99.9547,0.036 102.248,0.036 C 104.217,0.036 106.088,-0.228 107.851,-0.757333 C 109.615,-1.284 111.197,-2.05467 112.601,-3.068 C 114.404,-4.37333 115.783,-5.984 116.736,-7.90267 C 117.685,-9.82 118.161,-11.9627 118.161,-14.3387 C 118.161,-16.312 117.873,-18.1533 117.297,-19.86 C 116.721,-21.5693 115.872,-23.1307 114.745,-24.5493 C 113.483,-26.1027 111.897,-27.3 109.995,-28.14 C 108.093,-28.9827 106.003,-29.4013 103.727,-29.4013 Z M 107.908,-18.16 C 107.396,-18.4947 106.873,-18.7467 106.348,-18.9133 C 105.817,-19.0813 105.271,-19.1627 104.701,-19.1627 C 103.048,-19.1627 101.691,-18.5827 100.627,-17.42 C 99.564,-16.2587 99.0347,-14.7507 99.0347,-12.8987 C 99.0347,-12.1627 99.0987,-11.4693 99.2227,-10.8227 C 99.3467,-10.1747 99.5427,-9.57467 99.8053,-9.016 C 100.332,-8.68133 100.859,-8.436 101.377,-8.276 C 101.9,-8.116 102.423,-8.03467 102.952,-8.03467 C 104.687,-8.03467 106.103,-8.596 107.2,-9.716 C 108.299,-10.836 108.847,-12.2867 108.847,-14.068 C 108.847,-14.7787 108.772,-15.476 108.619,-16.1653 C 108.467,-16.8547 108.228,-17.52 107.908,-18.16 Z M 116.196,-24.1253 C 117.745,-22.64 118.929,-20.8733 119.747,-18.828 C 120.561,-16.784 120.971,-14.5693 120.971,-12.176 C 120.971,-10.3427 120.707,-8.636 120.177,-7.05733 C 119.651,-5.47867 118.859,-4.03867 117.805,-2.73067 C 116.292,-0.838667 114.361,0.608 112.015,1.61733 C 109.668,2.624 107.051,3.128 104.161,3.128 C 101.469,3.128 99.08,2.616 96.9973,1.59333 C 94.9133,0.569333 93.1507,-0.96 91.7067,-2.98933 C 90.1253,-4.49067 88.92,-6.264 88.088,-8.312 C 87.256,-10.36 86.84,-12.596 86.84,-15.028 C 86.84,-16.844 87.1027,-18.5373 87.6333,-20.0973 C 88.1587,-21.6587 88.952,-23.0907 90.008,-24.4 C 91.536,-26.2973 93.4733,-27.756 95.82,-28.7693 C 98.1667,-29.7827 100.78,-30.2907 103.652,-30.2907 C 106.376,-30.2907 108.793,-29.772 110.905,-28.7333 C 113.017,-27.6947 114.78,-26.1587 116.196,-24.1253 Z "/>
				<path id="dp_path017" fill="#008cff" d="M 137.784,-5.51733 L 137.595,-4.704 C 135.845,-5.09067 134.381,-5.852 133.204,-6.976 C 132.024,-8.10267 131.143,-9.58133 130.559,-11.416 L 131.369,-11.7107 C 131.871,-10.0547 132.657,-8.71067 133.724,-7.676 C 134.793,-6.64133 136.144,-5.92 137.784,-5.51733 Z M 137.827,-26.6387 L 137.68,-27.492 C 138.125,-27.5493 138.559,-27.588 138.981,-27.6173 C 139.408,-27.6453 139.828,-27.66 140.244,-27.66 C 143.997,-27.66 147.048,-26.4293 149.391,-23.9733 C 151.735,-21.512 152.904,-18.3053 152.904,-14.3453 C 152.904,-10.996 151.887,-8.24133 149.857,-6.072 C 147.827,-3.90667 144.968,-2.524 141.281,-1.92667 L 141.136,-2.784 C 144.603,-3.33867 147.287,-4.62533 149.192,-6.648 C 151.097,-8.668 152.051,-11.2493 152.051,-14.388 C 152.051,-18.0813 150.956,-21.076 148.765,-23.368 C 146.576,-25.6613 143.72,-26.8067 140.204,-26.8067 C 139.841,-26.8067 139.461,-26.792 139.067,-26.764 C 138.669,-26.7387 138.256,-26.696 137.827,-26.6387 Z M 132.745,-15.1707 C 132.745,-17.2253 133.372,-18.9213 134.619,-20.2547 C 135.867,-21.5867 137.443,-22.256 139.344,-22.256 C 141.371,-22.256 143.028,-21.4947 144.317,-19.9733 C 145.608,-18.452 146.256,-16.4827 146.256,-14.064 C 146.256,-12.052 145.623,-10.396 144.36,-9.09467 C 143.099,-7.796 141.503,-7.14533 139.572,-7.14533 C 137.535,-7.14533 135.885,-7.87867 134.629,-9.34267 C 133.375,-10.812 132.745,-12.752 132.745,-15.1707 Z M 140.247,-29.4013 C 138.217,-29.4013 136.319,-29.1427 134.548,-28.62 C 132.777,-28.1 131.213,-27.34 129.852,-26.34 C 128.032,-25.008 126.645,-23.3787 125.685,-21.452 C 124.728,-19.5293 124.249,-17.388 124.249,-15.028 C 124.249,-13.0827 124.54,-11.252 125.123,-9.53867 C 125.707,-7.82133 126.567,-6.25067 127.708,-4.81733 C 128.971,-3.264 130.556,-2.06533 132.465,-1.22667 C 134.373,-0.384 136.475,0.036 138.768,0.036 C 140.737,0.036 142.608,-0.228 144.371,-0.757333 C 146.135,-1.284 147.717,-2.05467 149.121,-3.068 C 150.924,-4.37333 152.303,-5.984 153.256,-7.90267 C 154.205,-9.82 154.681,-11.9627 154.681,-14.3387 C 154.681,-16.312 154.393,-18.1533 153.817,-19.86 C 153.241,-21.5693 152.392,-23.1307 151.265,-24.5493 C 150.003,-26.1027 148.417,-27.3 146.515,-28.14 C 144.613,-28.9827 142.523,-29.4013 140.247,-29.4013 Z M 144.428,-18.16 C 143.916,-18.4947 143.393,-18.7467 142.868,-18.9133 C 142.337,-19.0813 141.791,-19.1627 141.221,-19.1627 C 139.568,-19.1627 138.211,-18.5827 137.147,-17.42 C 136.084,-16.2587 135.555,-14.7507 135.555,-12.8987 C 135.555,-12.1627 135.619,-11.4693 135.743,-10.8227 C 135.867,-10.1747 136.063,-9.57467 136.325,-9.016 C 136.852,-8.68133 137.379,-8.436 137.897,-8.276 C 138.42,-8.116 138.943,-8.03467 139.472,-8.03467 C 141.207,-8.03467 142.623,-8.596 143.72,-9.716 C 144.819,-10.836 145.367,-12.2867 145.367,-14.068 C 145.367,-14.7787 145.292,-15.476 145.139,-16.1653 C 144.987,-16.8547 144.748,-17.52 144.428,-18.16 Z M 152.716,-24.1253 C 154.265,-22.64 155.449,-20.8733 156.267,-18.828 C 157.081,-16.784 157.491,-14.5693 157.491,-12.176 C 157.491,-10.3427 157.227,-8.636 156.697,-7.05733 C 156.171,-5.47867 155.379,-4.03867 154.325,-2.73067 C 152.812,-0.838667 150.881,0.608 148.535,1.61733 C 146.188,2.624 143.571,3.128 140.681,3.128 C 137.989,3.128 135.6,2.616 133.517,1.59333 C 131.433,0.569333 129.671,-0.96 128.227,-2.98933 C 126.645,-4.49067 125.44,-6.264 124.608,-8.312 C 123.776,-10.36 123.36,-12.596 123.36,-15.028 C 123.36,-16.844 123.623,-18.5373 124.153,-20.0973 C 124.679,-21.6587 125.472,-23.0907 126.528,-24.4 C 128.056,-26.2973 129.993,-27.756 132.34,-28.7693 C 134.687,-29.7827 137.3,-30.2907 140.172,-30.2907 C 142.896,-30.2907 145.313,-29.772 147.425,-28.7333 C 149.537,-27.6947 151.3,-26.1587 152.716,-24.1253 Z "/>
				<path id="dp_path018" fill="#008cff" d="M 181.357,-12.1267 L 181.584,-12.976 C 182.708,-12.7413 183.579,-12.2227 184.195,-11.4267 C 184.812,-10.6267 185.121,-9.61733 185.121,-8.39333 C 185.121,-7.132 184.675,-6.072 183.779,-5.21867 C 182.883,-4.36533 181.567,-3.736 179.832,-3.33467 L 179.604,-4.14533 C 181.144,-4.508 182.307,-5.03067 183.092,-5.72 C 183.877,-6.40667 184.269,-7.24133 184.269,-8.23067 C 184.269,-9.32533 184.016,-10.2147 183.508,-10.8867 C 183.003,-11.5613 182.285,-11.9733 181.357,-12.1267 Z M 165.515,-23.4147 L 166.457,-22.6427 L 167.563,-14.772 L 171.403,-15.2693 L 171.531,-14.416 L 166.831,-13.7907 Z M 173.116,-3.20667 L 173.24,-2.35333 L 168.544,-1.70667 L 167.121,-11.8533 L 168.085,-11.0813 L 169.273,-2.64533 Z M 162.133,-25.3947 L 172.593,-26.8733 C 173.553,-26.9987 174.396,-27.0947 175.125,-27.1653 C 175.853,-27.2333 176.447,-27.268 176.905,-27.268 C 178.708,-27.268 180.056,-26.8707 180.944,-26.0707 C 181.833,-25.2747 182.277,-24.0613 182.277,-22.4373 C 182.277,-21.6587 182.121,-20.9827 181.812,-20.4067 C 181.503,-19.828 181.008,-19.3267 180.333,-18.896 L 179.875,-19.6253 C 180.419,-19.956 180.816,-20.3427 181.072,-20.78 C 181.332,-21.2173 181.46,-21.74 181.46,-22.352 C 181.46,-23.7707 181.097,-24.8013 180.376,-25.448 C 179.651,-26.092 178.499,-26.4147 176.913,-26.4147 C 176.468,-26.4147 175.9,-26.3827 175.213,-26.3227 C 174.524,-26.2587 173.699,-26.1587 172.739,-26.0213 L 163.115,-24.6667 Z M 169.775,-11.772 L 172.657,-12.208 C 173.045,-12.2613 173.415,-12.304 173.763,-12.3333 C 174.112,-12.3613 174.424,-12.376 174.701,-12.376 C 175.843,-12.376 176.732,-12.0347 177.372,-11.356 C 178.012,-10.6733 178.332,-9.73467 178.332,-8.54267 C 178.332,-7.416 177.976,-6.56667 177.268,-5.99067 C 176.557,-5.41467 175.377,-5.00533 173.72,-4.77067 L 170.819,-4.39467 Z M 168.167,-23.3333 L 170.987,-23.7707 C 171.431,-23.824 171.851,-23.8667 172.237,-23.8947 C 172.629,-23.9227 172.973,-23.9373 173.283,-23.9373 C 174.229,-23.9373 174.987,-23.6067 175.555,-22.9453 C 176.127,-22.288 176.412,-21.4093 176.412,-20.3107 C 176.412,-19.216 176.099,-18.4013 175.473,-17.876 C 174.848,-17.3453 173.677,-16.9653 171.968,-16.7267 L 169.148,-16.2907 Z M 160.129,-26.788 L 163.972,0.772 L 176.455,-0.977333 C 180.191,-1.508 182.853,-2.32933 184.443,-3.448 C 186.032,-4.56533 186.828,-6.14667 186.828,-8.188 C 186.828,-10.52 186.181,-12.2293 184.891,-13.3107 C 183.6,-14.3947 181.524,-14.9787 178.665,-15.064 L 178.541,-15.96 C 180.493,-16.7773 181.908,-17.6973 182.783,-18.7187 C 183.653,-19.7387 184.091,-20.98 184.091,-22.4373 C 184.091,-24.5453 183.501,-26.1627 182.32,-27.2867 C 181.14,-28.4133 179.452,-28.9747 177.257,-28.9747 C 176.66,-28.9747 175.953,-28.936 175.136,-28.8613 C 174.315,-28.7827 173.397,-28.676 172.384,-28.5373 Z M 175.433,-21.0187 C 175.224,-21.0613 175.068,-21.0893 174.965,-21.104 C 174.859,-21.1187 174.773,-21.1253 174.701,-21.1253 C 174.592,-21.1253 174.368,-21.108 174.033,-21.072 C 173.699,-21.036 173.333,-20.9933 172.928,-20.9373 L 171.029,-20.6453 L 171.488,-17.5413 L 171.843,-17.58 C 173.347,-17.7907 174.339,-18.0853 174.827,-18.4693 C 175.313,-18.8493 175.559,-19.4507 175.559,-20.268 C 175.559,-20.3827 175.548,-20.496 175.527,-20.6133 C 175.505,-20.7307 175.473,-20.8653 175.433,-21.0187 Z M 172.696,-8.99867 L 173.159,-5.58133 L 173.596,-5.66667 C 175.061,-5.888 176.067,-6.204 176.617,-6.61333 C 177.169,-7.02533 177.443,-7.64 177.443,-8.45733 C 177.443,-8.568 177.436,-8.7 177.421,-8.852 C 177.407,-9.00533 177.385,-9.18 177.357,-9.37467 C 177.176,-9.41733 177.041,-9.44267 176.952,-9.45733 C 176.86,-9.47067 176.777,-9.47867 176.711,-9.47867 C 176.472,-9.47867 176.169,-9.46 175.8,-9.42533 C 175.431,-9.39333 175.051,-9.34667 174.663,-9.28933 Z M 164.787,1.54 L 163.197,1.792 L 159.097,-27.56 L 172.259,-29.388 C 173.383,-29.54 174.343,-29.6573 175.136,-29.74 C 175.924,-29.8213 176.551,-29.864 177.009,-29.864 C 178.844,-29.864 180.325,-29.576 181.456,-29.004 C 182.591,-28.428 183.483,-27.524 184.137,-26.2907 C 185.065,-25.5547 185.759,-24.688 186.213,-23.6853 C 186.672,-22.6853 186.9,-21.52 186.9,-20.1867 C 186.9,-19.0733 186.679,-18.064 186.239,-17.1533 C 185.793,-16.248 185.153,-15.4653 184.312,-14.8107 C 184.944,-14.424 185.484,-14.0107 185.925,-13.5733 C 186.369,-13.136 186.721,-12.6533 186.981,-12.1267 C 187.873,-11.5013 188.543,-10.676 188.993,-9.64933 C 189.445,-8.62133 189.672,-7.39867 189.672,-5.98 C 189.672,-3.676 188.805,-1.888 187.071,-0.618667 C 185.339,0.654667 182.48,1.568 178.499,2.12267 L 165.12,4.01733 Z "/>
				<path id="dp_path019" fill="#008cff" d="M 200.859,-2.47467 C 203.287,-2.85067 205.145,-3.59467 206.443,-4.704 C 207.741,-5.816 208.388,-7.21733 208.388,-8.91333 C 208.388,-10.3 208.107,-11.4547 207.545,-12.368 C 206.984,-13.2853 206.169,-13.9253 205.1,-14.2853 C 204.392,-14.5373 203.521,-14.7827 202.487,-15.024 C 201.452,-15.2693 200.805,-15.4547 200.541,-15.5787 C 199.457,-16.0373 198.693,-16.472 198.241,-16.88 C 197.789,-17.2893 197.445,-17.7933 197.211,-18.3907 L 198.024,-18.8067 C 198.48,-17.5267 200.083,-16.5427 202.831,-15.8493 C 204.012,-15.544 204.925,-15.28 205.58,-15.056 C 206.745,-14.64 207.645,-13.8933 208.285,-12.816 C 208.921,-11.74 209.241,-10.424 209.241,-8.86667 C 209.241,-6.936 208.531,-5.34667 207.108,-4.096 C 205.689,-2.848 203.66,-2.02 201.025,-1.61733 Z M 203.187,-27.8013 L 203.581,-25.0747 L 202.647,-25.68 L 202.461,-26.948 C 201.988,-26.948 201.508,-26.9133 201.025,-26.8453 C 200.539,-26.7747 200.012,-26.6707 199.44,-26.532 L 199.191,-27.304 C 199.788,-27.468 200.417,-27.596 201.085,-27.6773 C 201.751,-27.7587 202.451,-27.8013 203.187,-27.8013 Z M 204.808,-29.5373 C 204.684,-29.5373 204.492,-29.544 204.236,-29.5587 C 203.98,-29.572 203.788,-29.58 203.663,-29.58 C 199.784,-29.58 196.763,-28.7827 194.601,-27.1867 C 192.439,-25.5907 191.359,-23.3653 191.359,-20.5067 C 191.359,-18.4267 191.828,-16.7693 192.769,-15.5333 C 193.708,-14.2987 195.265,-13.3147 197.437,-12.5787 C 197.648,-12.5107 197.968,-12.408 198.397,-12.2693 C 201.48,-11.256 203.02,-10.0013 203.02,-8.5 C 203.02,-7.33733 202.551,-6.47067 201.612,-5.90133 C 200.677,-5.33333 199.255,-5.048 197.352,-5.048 C 196.756,-5.048 196.161,-5.084 195.572,-5.152 C 194.981,-5.21867 194.395,-5.32533 193.812,-5.46133 L 194.583,0.26 C 195.084,0.302667 195.583,0.337333 196.073,0.358667 C 196.567,0.38 197.064,0.390667 197.563,0.390667 C 201.747,0.390667 205.047,-0.444 207.464,-2.112 C 209.881,-3.77867 211.089,-6.044 211.089,-8.90533 C 211.089,-11.1173 210.6,-12.8693 209.619,-14.1707 C 208.637,-15.4693 207.055,-16.4613 204.872,-17.14 C 204.428,-17.2787 203.799,-17.428 202.977,-17.588 C 202.159,-17.748 201.591,-17.8973 201.271,-18.036 C 200.663,-18.3133 200.204,-18.6467 199.899,-19.0347 C 199.592,-19.4253 199.44,-19.8773 199.44,-20.3893 C 199.44,-21.4587 199.959,-22.2693 200.989,-22.824 C 202.024,-23.3827 203.567,-23.6813 205.623,-23.72 Z M 205.58,-30.3907 L 205.871,-28.2787 L 207.492,-28.1933 L 208.555,-20.556 L 207.972,-20.556 C 206.293,-20.556 204.979,-20.3933 204.023,-20.0653 C 203.065,-19.7387 202.511,-19.2653 202.359,-18.64 C 204.609,-18.2667 206.397,-17.712 207.723,-16.9827 C 209.049,-16.2547 210.045,-15.288 210.713,-14.0787 C 211.78,-13.176 212.58,-12.112 213.105,-10.8893 C 213.636,-9.66667 213.899,-8.26933 213.899,-6.70133 C 213.899,-3.55867 212.601,-1.06667 210.003,0.782667 C 207.403,2.63067 203.869,3.55467 199.397,3.55467 C 198.881,3.55467 198.327,3.53733 197.729,3.50133 C 197.132,3.46933 196.453,3.416 195.689,3.34533 L 195.376,1.244 C 195.152,1.23067 194.875,1.20133 194.54,1.16267 C 194.207,1.12 193.979,1.092 193.855,1.07733 L 192.673,-6.56267 C 193.595,-6.35333 194.444,-6.19733 195.223,-6.09333 C 196.005,-5.99067 196.745,-5.93733 197.437,-5.93733 C 198.956,-5.93733 200.115,-6.144 200.923,-6.552 C 201.729,-6.96133 202.131,-7.548 202.131,-8.312 L 202.131,-8.45733 C 199.28,-9.36133 197.239,-10.1893 196.009,-10.9467 C 194.779,-11.704 193.911,-12.5853 193.409,-13.5987 C 192.453,-14.3347 191.717,-15.2947 191.205,-16.4827 C 190.691,-17.6693 190.435,-19.024 190.435,-20.5493 C 190.435,-23.656 191.6,-26.0813 193.932,-27.8227 C 196.268,-29.5613 199.525,-30.4333 203.705,-30.4333 C 204.204,-30.4333 204.588,-30.4293 204.851,-30.4227 C 205.113,-30.4147 205.356,-30.404 205.58,-30.3907 Z "/>
			</g>
		</g>
	</g>
</svg>